<?xml version="1.0" standalone="no"?>
<!DOCTYPE svg PUBLIC "-//W3C//DTD SVG 20010904//EN"
 "http://www.w3.org/TR/2001/REC-SVG-20010904/DTD/svg10.dtd">
<svg version="1.0" xmlns="http://www.w3.org/2000/svg"
 width="449.000000pt" height="132.000000pt" viewBox="0 0 449.000000 132.000000"
 preserveAspectRatio="xMidYMid meet">

<g transform="translate(0.000000,132.000000) scale(0.100000,-0.100000)"
fill="#000000" stroke="none">
<path d="M535 1305 c-305 -56 -535 -334 -535 -646 0 -288 212 -557 496 -629
43 -11 97 -20 122 -20 l45 0 -6 488 c-4 268 -7 562 -7 655 0 192 12 176 -115
152z"/>
<path d="M2260 695 l0 -187 109 4 c104 3 111 5 148 34 56 45 75 87 71 160 -3
48 -10 69 -30 96 -41 54 -88 71 -200 76 l-98 4 0 -187z m216 71 c76 -76 18
-186 -98 -186 l-38 0 0 110 0 110 51 0 c45 0 55 -4 85 -34z"/>
<path d="M3210 690 l0 -180 45 0 45 0 0 65 c0 36 4 65 10 65 5 0 29 -29 52
-65 42 -63 44 -65 86 -65 23 0 42 3 42 6 0 3 -20 33 -43 67 -24 34 -47 67 -50
73 -4 6 12 35 34 65 l40 54 -38 3 c-33 3 -41 -1 -63 -29 -14 -18 -35 -44 -47
-58 l-22 -26 -1 103 0 102 -45 0 -45 0 0 -180z"/>
<path d="M3500 840 c0 -20 5 -30 15 -30 13 0 15 -23 15 -150 l0 -150 40 0 40
0 0 180 0 180 -55 0 c-54 0 -55 0 -55 -30z"/>
<path d="M1645 780 c-11 -4 -31 -20 -44 -34 -32 -34 -41 -127 -17 -174 31 -60
119 -81 170 -41 l26 20 0 -25 c0 -38 -34 -56 -107 -56 l-63 0 0 -30 c0 -24 5
-31 26 -36 40 -10 131 3 167 23 45 27 56 67 56 221 l1 132 -35 0 c-29 0 -35
-4 -36 -22 0 -13 -3 -17 -6 -10 -13 33 -92 51 -138 32z m117 -77 c23 -20 24
-80 1 -105 -20 -22 -70 -23 -95 -1 -23 20 -24 80 -1 105 20 22 70 23 95 1z"/>
<path d="M1981 772 c-54 -27 -75 -64 -75 -127 0 -63 21 -100 75 -127 69 -36
164 -13 200 46 26 42 25 121 -1 164 -36 59 -130 80 -199 44z m123 -74 c21 -29
20 -87 -1 -110 -16 -18 -68 -24 -90 -10 -18 12 -34 62 -27 86 17 57 88 78 118
34z"/>
<path d="M2688 774 c-34 -18 -68 -82 -68 -126 0 -74 68 -148 137 -148 64 0
133 45 133 87 0 18 -65 17 -80 -2 -19 -23 -87 -20 -100 4 -20 38 -13 41 90 41
73 0 100 3 100 13 0 38 -25 89 -56 116 -28 25 -43 31 -82 31 -26 -1 -59 -8
-74 -16z m112 -64 c32 -32 24 -40 -40 -40 -33 0 -60 4 -60 10 0 17 39 50 60
50 11 0 29 -9 40 -20z"/>
<path d="M2990 783 c-57 -21 -78 -90 -40 -131 20 -22 31 -25 102 -37 38 -6 54
-25 35 -44 -16 -16 -63 -14 -81 4 -13 13 -86 22 -86 10 0 -21 28 -55 56 -69
98 -46 218 17 188 100 -11 32 -67 64 -110 64 -33 0 -60 22 -49 40 9 15 61 12
75 -5 14 -17 80 -21 80 -4 0 55 -100 97 -170 72z"/>
<path d="M3724 771 c-36 -22 -64 -75 -64 -123 0 -74 68 -148 137 -148 64 0
133 45 133 87 0 18 -65 17 -80 -2 -19 -23 -87 -20 -100 4 -5 11 -10 22 -10 25
0 3 43 6 95 6 108 0 113 3 96 68 -17 60 -69 102 -129 102 -28 0 -59 -8 -78
-19z m116 -61 c32 -32 24 -40 -40 -40 -33 0 -60 4 -60 10 0 17 39 50 60 50 11
0 29 -9 40 -20z"/>
<path d="M4030 783 c-57 -21 -78 -90 -40 -131 20 -22 31 -25 102 -37 38 -6 54
-25 35 -44 -16 -16 -63 -14 -81 4 -13 13 -86 22 -86 10 0 -21 28 -55 56 -69
102 -48 228 26 184 109 -15 29 -67 55 -108 55 -31 0 -58 22 -47 40 9 15 61 12
75 -5 14 -17 80 -21 80 -4 0 55 -100 97 -170 72z"/>
<path d="M4294 780 c-30 -12 -54 -49 -54 -81 0 -35 51 -79 90 -79 40 0 80 -17
80 -34 0 -28 -68 -36 -94 -11 -17 17 -86 21 -86 4 0 -6 13 -23 28 -39 72 -72
222 -38 222 50 0 49 -54 90 -119 90 -31 0 -57 23 -46 40 9 15 61 12 79 -5 8
-8 29 -15 46 -15 27 0 31 3 28 22 -7 50 -109 84 -174 58z"/>
</g>
</svg>
